:SAMPLES-PER-SECOND 30
:FULLY-SPECIFIED
:DEGREES
77
root  1.08277 17.8564 -1.97448 62.4426 87.6058 63.0254
RightUpLeg  -26.1598 -4.55655 -18.8195
RightLeg  133.884 8.35317 3.78362
RightFoot  -30.2846 1.3989 9.19164
RightToes  1.80444e-009 -3.18055e-015 8.94531e-016
Spine  54.1403 0.5305 6.73299
Spine1  3.38565 6.14935 -18.446
HEad  -44.4043 -1.77258 8.68259
LeftShoulder1  0 -2.69403e-036 -1.28585e-037
LeftArm  -10.4956 -58.6024 -71.9323
LeftForeArm  -126.54 -51.3054 166.791
LeftHand  -0.409243 2.92302 19.3957
RightShoulder  -2.48481e-017 0 -8.08114e-019
RightArm  -1.78283 48.9931 72.2509
RightForeArm  -85.7836 45.3763 -155.517
RightHand  3.93903 -16.1396 -25.9936
LeftUpLeg  -100.359 -2.75684 0.0539733
LeftLeg  103.326 -16.1172 9.16862
LeftFoot  -4.86474 0.102865 -1.55867
LeftToes  -1.10049e-010 -1.44524e-010 4.8374e-011
78
root  1.93539 18.5759 -1.99784 81.7595 88.5486 80.5538
RightUpLeg  -24.4664 -4.15822 -18.138
RightLeg  130.075 5.28531 7.66051
RightFoot  -30.9647 1.46926 9.24908
RightToes  1.80444e-009 -3.18055e-015 8.94531e-016
Spine  53.5864 0.457279 6.52909
Spine1  3.93841 6.1735 -17.9679
HEad  -43.5041 -2.48607 9.27545
LeftShoulder1  0 -2.69403e-036 -1.28585e-037
LeftArm  -10.6563 -58.4884 -71.2338
LeftForeArm  -126.621 -51.4604 166.669
LeftHand  -0.356614 3.02007 18.8865
RightShoulder  -2.48481e-017 0 -8.08114e-019
RightArm  -2.31249 49.2613 71.8161
RightForeArm  -84.4795 45.3205 -155.511
RightHand  4.02831 -16.1367 -26.9351
LeftUpLeg  -99.1449 -2.87518 0.101243
LeftLeg  103.512 -16.0402 8.80505
LeftFoot  -8.17101 0.0434195 -1.48903
LeftToes  -1.10049e-010 -1.44524e-010 4.8374e-011
79
root  2.82779 19.4913 -1.97469 122.474 88.9193 120.12
RightUpLeg  -23.3985 -3.38151 -17.1829
RightLeg  125.854 3.18484 11.4935
RightFoot  -28.2712 1.43214 10.6508
RightToes  1.80444e-009 -3.18055e-015 8.94531e-016
Spine  53.8107 0.673864 5.72775
Spine1  3.40851 6.04505 -17.1178
HEad  -41.8463 -3.74069 9.99307
LeftShoulder1  0 -2.69403e-036 -1.28585e-037
LeftArm  -10.692 -57.6917 -70.9096
LeftForeArm  -127.765 -51.5256 166.702
LeftHand  -0.180822 3.39594 17.3234
RightShoulder  -2.48481e-017 0 -8.08114e-019
RightArm  -2.46156 48.4569 71.6395
RightForeArm  -83.3333 45.3792 -155.369
RightHand  4.02126 -16.1683 -26.744
LeftUpLeg  -96.3896 -2.98805 0.195841
LeftLeg  103.133 -15.7904 8.24816
LeftFoot  -10.7664 0.00585187 -1.63452
LeftToes  -1.10049e-010 -1.44524e-010 4.8374e-011
80
root  3.68128 20.3662 -1.93567 -178.961 88.764 177.919
RightUpLeg  -24.5828 -2.88216 -15.3945
RightLeg  122.943 2.9256 13.0013
RightFoot  -17.0938 0.41083 12.0855
RightToes  1.80444e-009 -3.18055e-015 8.94531e-016
Spine  54.217 1.21062 4.8003
Spine1  2.13753 5.88332 -15.7075
HEad  -39.8866 -5.00879 10.4908
LeftShoulder1  0 -2.69403e-036 -1.28585e-037
LeftArm  -10.5921 -56.591 -70.7293
LeftForeArm  -129.229 -51.4132 166.906
LeftHand  -0.00760399 3.7902 15.6858
RightShoulder  -2.48481e-017 0 -8.08114e-019
RightArm  -2.71617 47.2799 71.2291
RightForeArm  -82.7681 45.6733 -154.956
RightHand  3.95878 -16.2477 -25.8108
LeftUpLeg  -93.6411 -3.15679 1.15215
LeftLeg  102.835 -15.6068 7.83119
LeftFoot  -13.1009 -0.0332865 -1.97016
LeftToes  -1.10049e-010 -1.44524e-010 4.8374e-011
81
root  4.35384 21.1039 -1.8522 -151.671 87.9695 -154.526
RightUpLeg  -27.874 -3.06248 -13.2843
RightLeg  122.283 4.14575 11.4575
RightFoot  -2.47299 -1.17218 12.4715
RightToes  1.80444e-009 -3.18055e-015 8.94531e-016
Spine  54.9921 2.00198 3.22761
Spine1  1.52317 5.64185 -13.4777
HEad  -37.9861 -5.46553 10.5175
LeftShoulder1  0 -2.69403e-036 -1.28585e-037
LeftArm  -10.297 -55.8371 -70.4531
LeftForeArm  -130.325 -51.3307 167.056
LeftHand  0.120656 4.16151 14.9126
RightShoulder  -2.48481e-017 0 -8.08114e-019
RightArm  -3.51016 46.4673 70.4134
RightForeArm  -83.3445 45.9308 -154.651
RightHand  3.99257 -16.42 -25.5466
LeftUpLeg  -90.4642 -3.58199 2.38497
LeftLeg  102.292 -15.5238 7.88139
LeftFoot  -15.3664 -0.0913958 -2.66019
LeftToes  -1.10049e-010 -1.44524e-010 4.8374e-011
82
root  5.04394 21.7354 -1.7992 -143.181 87.3864 -144.328
RightUpLeg  -31.9632 -3.68735 -11.656
RightLeg  123.585 6.14838 8.09602
RightFoot  3.59364 -1.45548 10.1606
RightToes  1.80444e-009 -3.18055e-015 8.94531e-016
Spine  56.012 2.7449 1.34294
Spine1  2.06268 5.22421 -10.7544
HEad  -36.0325 -4.90187 10.3649
LeftShoulder1  0 -2.69403e-036 -1.28585e-037
LeftArm  -9.44691 -55.5884 -70.3427
LeftForeArm  -131.086 -51.6125 166.884
LeftHand  0.235943 4.61499 15.2445
RightShoulder  -2.48481e-017 0 -8.08114e-019
RightArm  -4.07324 45.6155 70.0707
RightForeArm  -84.1049 46.0399 -154.552
RightHand  4.10197 -16.6177 -25.9615
LeftUpLeg  -85.9489 -3.80779 3.24459
LeftLeg  102.019 -15.539 8.09047
LeftFoot  -17.2835 -0.174746 -3.62581
LeftToes  -1.10049e-010 -1.44524e-010 4.8374e-011
83
root  5.962 22.2542 -1.87998 -125.969 86.9082 -124.891
RightUpLeg  -37.2585 -4.66587 -10.0131
RightLeg  125.649 8.85704 3.99661
RightFoot  -2.09918 -0.435892 4.07873
RightToes  1.80444e-009 -3.18055e-015 8.94531e-016
Spine  56.2873 2.83715 0.317865
Spine1  3.47309 4.72282 -8.43156
HEad  -33.5972 -3.81204 10.3994
LeftShoulder1  0 -2.69403e-036 -1.28585e-037
LeftArm  -8.07293 -55.315 -70.7098
LeftForeArm  -131.374 -52.1565 166.454
LeftHand  0.306005 4.96089 16.3273
RightShoulder  -2.48481e-017 0 -8.08114e-019
RightArm  -3.30505 43.988 71.1063
RightForeArm  -84.0446 46.0954 -154.475
RightHand  4.15972 -16.7198 -26.1826
LeftUpLeg  -81.218 -3.36142 4.28171
LeftLeg  103.029 -15.6595 7.85064
LeftFoot  -18.2492 -0.265548 -4.97547
LeftToes  -1.10049e-010 -1.44524e-010 4.8374e-011
84
root  7.02145 22.5739 -2.06372 -101.784 86.1196 -97.9675
RightUpLeg  -43.9019 -5.62053 -8.05335
RightLeg  126.699 12.147 -0.293125
RightFoot  -12.3165 -0.0122499 0.0279206
RightToes  1.80444e-009 -3.18055e-015 8.94531e-016
Spine  56.2247 2.4484 0.0780032
Spine1  5.14769 4.23762 -6.8127
HEad  -30.7125 -2.73335 10.4985
LeftShoulder1  0 -2.69403e-036 -1.28585e-037
LeftArm  -6.87079 -54.5699 -71.3106
LeftForeArm  -130.985 -52.407 166.209
LeftHand  0.300633 5.01469 17.2211
RightShoulder  -2.48481e-017 0 -8.08114e-019
RightArm  -1.47255 41.8231 73.0392
RightForeArm  -83.7058 46.1597 -154.369
RightHand  4.12433 -16.6633 -26.027
LeftUpLeg  -76.5984 -2.21967 5.7796
LeftLeg  105.496 -15.8566 7.10315
LeftFoot  -18.2588 -0.35512 -7.09706
LeftToes  -1.10049e-010 -1.44524e-010 4.8374e-011
